<svg width="76" height="76" viewBox="0 0 76 76" fill="none" xmlns="http://www.w3.org/2000/svg">
<path d="M76 38C76 58.9873 58.9912 76 37.9974 76C17.0036 76 -7.43874e-07 58.9821 -1.66103e-06 38C-2.57819e-06 17.0179 17.0139 2.57837e-06 38.0026 1.66092e-06C58.9912 7.43476e-07 76 17.0127 76 38ZM5.08948 38C5.08948 56.1475 19.8487 70.9109 38.0077 70.9109C56.1667 70.9109 70.9208 56.1477 70.9208 38C70.9208 19.8523 56.1513 5.08914 38.0077 5.08914C19.8641 5.08914 5.08948 19.8474 5.08948 38Z" fill="#933EC5"/>
<path d="M50.1357 36.3613C50.6345 36.8601 50.8736 37.5115 50.8736 38.168C50.8736 38.8245 50.6344 39.4758 50.1357 39.9746L33.6308 56.4783C32.6383 57.4707 31.0249 57.4707 30.0326 56.4783C29.0401 55.4859 29.0401 53.8727 30.0326 52.8804L44.746 38.168L30.0326 23.4555C29.0401 22.4631 29.0401 20.8499 30.0326 19.8576C31.0251 18.8652 32.6384 18.8652 33.6308 19.8576L50.1357 36.3613Z" fill="#933EC5"/>
</svg>
