<svg width="116" height="95" viewBox="0 0 116 95" fill="none" xmlns="http://www.w3.org/2000/svg">
<path opacity="0.3" d="M5 10C7.76142 10 10 7.76142 10 5C10 2.23858 7.76142 0 5 0C2.23858 0 0 2.23858 0 5C0 7.76142 2.23858 10 5 10Z" fill="#FF1536" fill-opacity="0.5"/>
<path opacity="0.3" d="M25.8 10C28.5615 10 30.8 7.76142 30.8 5C30.8 2.23858 28.5615 0 25.8 0C23.0386 0 20.8 2.23858 20.8 5C20.8 7.76142 23.0386 10 25.8 10Z" fill="#FF1536" fill-opacity="0.5"/>
<path opacity="0.3" d="M47.3 10.5C50.0615 10.5 52.3 8.26142 52.3 5.5C52.3 2.73858 50.0615 0.5 47.3 0.5C44.5386 0.5 42.3 2.73858 42.3 5.5C42.3 8.26142 44.5386 10.5 47.3 10.5Z" fill="#FF1536" fill-opacity="0.5"/>
<path opacity="0.3" d="M68.6001 10.7C71.3615 10.7 73.6001 8.46138 73.6001 5.69995C73.6001 2.93853 71.3615 0.699951 68.6001 0.699951C65.8387 0.699951 63.6001 2.93853 63.6001 5.69995C63.6001 8.46138 65.8387 10.7 68.6001 10.7Z" fill="#FF1536" fill-opacity="0.5"/>
<path opacity="0.3" d="M89.7001 10.8C92.4615 10.8 94.7001 8.56147 94.7001 5.80005C94.7001 3.03863 92.4615 0.800049 89.7001 0.800049C86.9386 0.800049 84.7001 3.03863 84.7001 5.80005C84.7001 8.56147 86.9386 10.8 89.7001 10.8Z" fill="#FF1536" fill-opacity="0.5"/>
<path opacity="0.3" d="M109.8 11C112.561 11 114.8 8.76142 114.8 6C114.8 3.23858 112.561 1 109.8 1C107.039 1 104.8 3.23858 104.8 6C104.8 8.76142 107.039 11 109.8 11Z" fill="#FF1536" fill-opacity="0.5"/>
<path opacity="0.3" d="M5 26.6C7.76142 26.6 10 24.3614 10 21.6C10 18.8386 7.76142 16.6 5 16.6C2.23858 16.6 0 18.8386 0 21.6C0 24.3614 2.23858 26.6 5 26.6Z" fill="#FF1536" fill-opacity="0.5"/>
<path opacity="0.3" d="M25.8 26.6C28.5615 26.6 30.8 24.3614 30.8 21.6C30.8 18.8386 28.5615 16.6 25.8 16.6C23.0386 16.6 20.8 18.8386 20.8 21.6C20.8 24.3614 23.0386 26.6 25.8 26.6Z" fill="#FF1536" fill-opacity="0.5"/>
<path opacity="0.3" d="M47.3 27C50.0615 27 52.3 24.7614 52.3 22C52.3 19.2386 50.0615 17 47.3 17C44.5386 17 42.3 19.2386 42.3 22C42.3 24.7614 44.5386 27 47.3 27Z" fill="#FF1536" fill-opacity="0.5"/>
<path opacity="0.3" d="M68.6001 27.2C71.3615 27.2 73.6001 24.9614 73.6001 22.2C73.6001 19.4385 71.3615 17.2 68.6001 17.2C65.8387 17.2 63.6001 19.4385 63.6001 22.2C63.6001 24.9614 65.8387 27.2 68.6001 27.2Z" fill="#FF1536" fill-opacity="0.5"/>
<path opacity="0.3" d="M89.7001 27.3C92.4615 27.3 94.7001 25.0615 94.7001 22.3C94.7001 19.5386 92.4615 17.3 89.7001 17.3C86.9386 17.3 84.7001 19.5386 84.7001 22.3C84.7001 25.0615 86.9386 27.3 89.7001 27.3Z" fill="#FF1536" fill-opacity="0.5"/>
<path opacity="0.3" d="M109.8 27.6C112.561 27.6 114.8 25.3614 114.8 22.6C114.8 19.8386 112.561 17.6 109.8 17.6C107.039 17.6 104.8 19.8386 104.8 22.6C104.8 25.3614 107.039 27.6 109.8 27.6Z" fill="#FF1536" fill-opacity="0.5"/>
<path opacity="0.3" d="M5 10C7.76142 10 10 7.76142 10 5C10 2.23858 7.76142 0 5 0C2.23858 0 0 2.23858 0 5C0 7.76142 2.23858 10 5 10Z" fill="#FF1536" fill-opacity="0.5"/>
<path opacity="0.3" d="M25.8 10C28.5615 10 30.8 7.76142 30.8 5C30.8 2.23858 28.5615 0 25.8 0C23.0386 0 20.8 2.23858 20.8 5C20.8 7.76142 23.0386 10 25.8 10Z" fill="#FF1536" fill-opacity="0.5"/>
<path opacity="0.3" d="M47.3 10.5C50.0615 10.5 52.3 8.26142 52.3 5.5C52.3 2.73858 50.0615 0.5 47.3 0.5C44.5386 0.5 42.3 2.73858 42.3 5.5C42.3 8.26142 44.5386 10.5 47.3 10.5Z" fill="#FF1536" fill-opacity="0.5"/>
<path opacity="0.3" d="M68.6001 10.7C71.3615 10.7 73.6001 8.46138 73.6001 5.69995C73.6001 2.93853 71.3615 0.699951 68.6001 0.699951C65.8387 0.699951 63.6001 2.93853 63.6001 5.69995C63.6001 8.46138 65.8387 10.7 68.6001 10.7Z" fill="#FF1536" fill-opacity="0.5"/>
<path opacity="0.3" d="M89.7001 10.8C92.4615 10.8 94.7001 8.56147 94.7001 5.80005C94.7001 3.03863 92.4615 0.800049 89.7001 0.800049C86.9386 0.800049 84.7001 3.03863 84.7001 5.80005C84.7001 8.56147 86.9386 10.8 89.7001 10.8Z" fill="#FF1536" fill-opacity="0.5"/>
<path opacity="0.3" d="M109.8 11C112.561 11 114.8 8.76142 114.8 6C114.8 3.23858 112.561 1 109.8 1C107.039 1 104.8 3.23858 104.8 6C104.8 8.76142 107.039 11 109.8 11Z" fill="#FF1536" fill-opacity="0.5"/>
<path opacity="0.3" d="M5 26.6C7.76142 26.6 10 24.3614 10 21.6C10 18.8386 7.76142 16.6 5 16.6C2.23858 16.6 0 18.8386 0 21.6C0 24.3614 2.23858 26.6 5 26.6Z" fill="#FF1536" fill-opacity="0.5"/>
<path opacity="0.3" d="M25.8 26.6C28.5615 26.6 30.8 24.3614 30.8 21.6C30.8 18.8386 28.5615 16.6 25.8 16.6C23.0386 16.6 20.8 18.8386 20.8 21.6C20.8 24.3614 23.0386 26.6 25.8 26.6Z" fill="#FF1536" fill-opacity="0.5"/>
<path opacity="0.3" d="M47.3 27C50.0615 27 52.3 24.7614 52.3 22C52.3 19.2386 50.0615 17 47.3 17C44.5386 17 42.3 19.2386 42.3 22C42.3 24.7614 44.5386 27 47.3 27Z" fill="#FF1536" fill-opacity="0.5"/>
<path opacity="0.3" d="M68.6001 27.2C71.3615 27.2 73.6001 24.9614 73.6001 22.2C73.6001 19.4385 71.3615 17.2 68.6001 17.2C65.8387 17.2 63.6001 19.4385 63.6001 22.2C63.6001 24.9614 65.8387 27.2 68.6001 27.2Z" fill="#FF1536" fill-opacity="0.5"/>
<path opacity="0.3" d="M89.7001 27.3C92.4615 27.3 94.7001 25.0615 94.7001 22.3C94.7001 19.5386 92.4615 17.3 89.7001 17.3C86.9386 17.3 84.7001 19.5386 84.7001 22.3C84.7001 25.0615 86.9386 27.3 89.7001 27.3Z" fill="#FF1536" fill-opacity="0.5"/>
<path opacity="0.3" d="M109.8 27.6C112.561 27.6 114.8 25.3614 114.8 22.6C114.8 19.8386 112.561 17.6 109.8 17.6C107.039 17.6 104.8 19.8386 104.8 22.6C104.8 25.3614 107.039 27.6 109.8 27.6Z" fill="#FF1536" fill-opacity="0.5"/>
<path opacity="0.3" d="M5 10C7.76142 10 10 7.76142 10 5C10 2.23858 7.76142 0 5 0C2.23858 0 0 2.23858 0 5C0 7.76142 2.23858 10 5 10Z" fill="#FF1536" fill-opacity="0.5"/>
<path opacity="0.3" d="M25.8 10C28.5615 10 30.8 7.76142 30.8 5C30.8 2.23858 28.5615 0 25.8 0C23.0386 0 20.8 2.23858 20.8 5C20.8 7.76142 23.0386 10 25.8 10Z" fill="#FF1536" fill-opacity="0.5"/>
<path opacity="0.3" d="M47.3 10.5C50.0615 10.5 52.3 8.26142 52.3 5.5C52.3 2.73858 50.0615 0.5 47.3 0.5C44.5386 0.5 42.3 2.73858 42.3 5.5C42.3 8.26142 44.5386 10.5 47.3 10.5Z" fill="#FF1536" fill-opacity="0.5"/>
<path opacity="0.3" d="M68.6001 10.7C71.3615 10.7 73.6001 8.46138 73.6001 5.69995C73.6001 2.93853 71.3615 0.699951 68.6001 0.699951C65.8387 0.699951 63.6001 2.93853 63.6001 5.69995C63.6001 8.46138 65.8387 10.7 68.6001 10.7Z" fill="#FF1536" fill-opacity="0.5"/>
<path opacity="0.3" d="M89.7001 10.8C92.4615 10.8 94.7001 8.56147 94.7001 5.80005C94.7001 3.03863 92.4615 0.800049 89.7001 0.800049C86.9386 0.800049 84.7001 3.03863 84.7001 5.80005C84.7001 8.56147 86.9386 10.8 89.7001 10.8Z" fill="#FF1536" fill-opacity="0.5"/>
<path opacity="0.3" d="M109.8 11C112.561 11 114.8 8.76142 114.8 6C114.8 3.23858 112.561 1 109.8 1C107.039 1 104.8 3.23858 104.8 6C104.8 8.76142 107.039 11 109.8 11Z" fill="#FF1536" fill-opacity="0.5"/>
<path opacity="0.3" d="M5 26.6C7.76142 26.6 10 24.3614 10 21.6C10 18.8386 7.76142 16.6 5 16.6C2.23858 16.6 0 18.8386 0 21.6C0 24.3614 2.23858 26.6 5 26.6Z" fill="#FF1536" fill-opacity="0.5"/>
<path opacity="0.3" d="M25.8 26.6C28.5615 26.6 30.8 24.3614 30.8 21.6C30.8 18.8386 28.5615 16.6 25.8 16.6C23.0386 16.6 20.8 18.8386 20.8 21.6C20.8 24.3614 23.0386 26.6 25.8 26.6Z" fill="#FF1536" fill-opacity="0.5"/>
<path opacity="0.3" d="M47.3 27C50.0615 27 52.3 24.7614 52.3 22C52.3 19.2386 50.0615 17 47.3 17C44.5386 17 42.3 19.2386 42.3 22C42.3 24.7614 44.5386 27 47.3 27Z" fill="#FF1536" fill-opacity="0.5"/>
<path opacity="0.3" d="M68.6001 27.2C71.3615 27.2 73.6001 24.9614 73.6001 22.2C73.6001 19.4385 71.3615 17.2 68.6001 17.2C65.8387 17.2 63.6001 19.4385 63.6001 22.2C63.6001 24.9614 65.8387 27.2 68.6001 27.2Z" fill="#FF1536" fill-opacity="0.5"/>
<path opacity="0.3" d="M89.7001 27.3C92.4615 27.3 94.7001 25.0615 94.7001 22.3C94.7001 19.5386 92.4615 17.3 89.7001 17.3C86.9386 17.3 84.7001 19.5386 84.7001 22.3C84.7001 25.0615 86.9386 27.3 89.7001 27.3Z" fill="#FF1536" fill-opacity="0.5"/>
<path opacity="0.3" d="M109.8 27.6C112.561 27.6 114.8 25.3614 114.8 22.6C114.8 19.8386 112.561 17.6 109.8 17.6C107.039 17.6 104.8 19.8386 104.8 22.6C104.8 25.3614 107.039 27.6 109.8 27.6Z" fill="#FF1536" fill-opacity="0.5"/>
<path opacity="0.3" d="M5 43.1C7.76142 43.1 10 40.8614 10 38.1C10 35.3386 7.76142 33.1 5 33.1C2.23858 33.1 0 35.3386 0 38.1C0 40.8614 2.23858 43.1 5 43.1Z" fill="#FF1536" fill-opacity="0.5"/>
<path opacity="0.3" d="M25.8 43.1C28.5615 43.1 30.8 40.8614 30.8 38.1C30.8 35.3386 28.5615 33.1 25.8 33.1C23.0386 33.1 20.8 35.3386 20.8 38.1C20.8 40.8614 23.0386 43.1 25.8 43.1Z" fill="#FF1536" fill-opacity="0.5"/>
<path opacity="0.3" d="M47.3 43.6C50.0615 43.6 52.3 41.3614 52.3 38.6C52.3 35.8386 50.0615 33.6 47.3 33.6C44.5386 33.6 42.3 35.8386 42.3 38.6C42.3 41.3614 44.5386 43.6 47.3 43.6Z" fill="#FF1536" fill-opacity="0.5"/>
<path opacity="0.3" d="M68.6001 43.8C71.3615 43.8 73.6001 41.5615 73.6001 38.8C73.6001 36.0386 71.3615 33.8 68.6001 33.8C65.8387 33.8 63.6001 36.0386 63.6001 38.8C63.6001 41.5615 65.8387 43.8 68.6001 43.8Z" fill="#FF1536" fill-opacity="0.5"/>
<path opacity="0.3" d="M89.7001 43.9C92.4615 43.9 94.7001 41.6614 94.7001 38.9C94.7001 36.1386 92.4615 33.9 89.7001 33.9C86.9386 33.9 84.7001 36.1386 84.7001 38.9C84.7001 41.6614 86.9386 43.9 89.7001 43.9Z" fill="#FF1536" fill-opacity="0.5"/>
<path opacity="0.3" d="M109.8 44.1C112.561 44.1 114.8 41.8614 114.8 39.1C114.8 36.3386 112.561 34.1 109.8 34.1C107.039 34.1 104.8 36.3386 104.8 39.1C104.8 41.8614 107.039 44.1 109.8 44.1Z" fill="#FF1536" fill-opacity="0.5"/>
<path opacity="0.3" d="M5 59.6C7.76142 59.6 10 57.3614 10 54.6C10 51.8386 7.76142 49.6 5 49.6C2.23858 49.6 0 51.8386 0 54.6C0 57.3614 2.23858 59.6 5 59.6Z" fill="#FF1536" fill-opacity="0.5"/>
<path opacity="0.3" d="M25.8 59.6C28.5615 59.6 30.8 57.3614 30.8 54.6C30.8 51.8386 28.5615 49.6 25.8 49.6C23.0386 49.6 20.8 51.8386 20.8 54.6C20.8 57.3614 23.0386 59.6 25.8 59.6Z" fill="#FF1536" fill-opacity="0.5"/>
<path opacity="0.3" d="M47.3 60.1C50.0615 60.1 52.3 57.8614 52.3 55.1C52.3 52.3386 50.0615 50.1 47.3 50.1C44.5386 50.1 42.3 52.3386 42.3 55.1C42.3 57.8614 44.5386 60.1 47.3 60.1Z" fill="#FF1536" fill-opacity="0.5"/>
<path opacity="0.3" d="M68.6001 60.3C71.3615 60.3 73.6001 58.0615 73.6001 55.3C73.6001 52.5386 71.3615 50.3 68.6001 50.3C65.8387 50.3 63.6001 52.5386 63.6001 55.3C63.6001 58.0615 65.8387 60.3 68.6001 60.3Z" fill="#FF1536" fill-opacity="0.5"/>
<path opacity="0.3" d="M89.7001 60.4C92.4615 60.4 94.7001 58.1614 94.7001 55.4C94.7001 52.6386 92.4615 50.4 89.7001 50.4C86.9386 50.4 84.7001 52.6386 84.7001 55.4C84.7001 58.1614 86.9386 60.4 89.7001 60.4Z" fill="#FF1536" fill-opacity="0.5"/>
<path opacity="0.3" d="M109.8 60.7C112.561 60.7 114.8 58.4614 114.8 55.7C114.8 52.9385 112.561 50.7 109.8 50.7C107.039 50.7 104.8 52.9385 104.8 55.7C104.8 58.4614 107.039 60.7 109.8 60.7Z" fill="#FF1536" fill-opacity="0.5"/>
<path opacity="0.3" d="M5 43.1C7.76142 43.1 10 40.8614 10 38.1C10 35.3386 7.76142 33.1 5 33.1C2.23858 33.1 0 35.3386 0 38.1C0 40.8614 2.23858 43.1 5 43.1Z" fill="#FF1536" fill-opacity="0.5"/>
<path opacity="0.3" d="M25.8 43.1C28.5615 43.1 30.8 40.8614 30.8 38.1C30.8 35.3386 28.5615 33.1 25.8 33.1C23.0386 33.1 20.8 35.3386 20.8 38.1C20.8 40.8614 23.0386 43.1 25.8 43.1Z" fill="#FF1536" fill-opacity="0.5"/>
<path opacity="0.3" d="M47.3 43.6C50.0615 43.6 52.3 41.3614 52.3 38.6C52.3 35.8386 50.0615 33.6 47.3 33.6C44.5386 33.6 42.3 35.8386 42.3 38.6C42.3 41.3614 44.5386 43.6 47.3 43.6Z" fill="#FF1536" fill-opacity="0.5"/>
<path opacity="0.3" d="M68.6001 43.8C71.3615 43.8 73.6001 41.5615 73.6001 38.8C73.6001 36.0386 71.3615 33.8 68.6001 33.8C65.8387 33.8 63.6001 36.0386 63.6001 38.8C63.6001 41.5615 65.8387 43.8 68.6001 43.8Z" fill="#FF1536" fill-opacity="0.5"/>
<path opacity="0.3" d="M89.7001 43.9C92.4615 43.9 94.7001 41.6614 94.7001 38.9C94.7001 36.1386 92.4615 33.9 89.7001 33.9C86.9386 33.9 84.7001 36.1386 84.7001 38.9C84.7001 41.6614 86.9386 43.9 89.7001 43.9Z" fill="#FF1536" fill-opacity="0.5"/>
<path opacity="0.3" d="M109.8 44.1C112.561 44.1 114.8 41.8614 114.8 39.1C114.8 36.3386 112.561 34.1 109.8 34.1C107.039 34.1 104.8 36.3386 104.8 39.1C104.8 41.8614 107.039 44.1 109.8 44.1Z" fill="#FF1536" fill-opacity="0.5"/>
<path opacity="0.3" d="M5 59.6C7.76142 59.6 10 57.3614 10 54.6C10 51.8386 7.76142 49.6 5 49.6C2.23858 49.6 0 51.8386 0 54.6C0 57.3614 2.23858 59.6 5 59.6Z" fill="#FF1536" fill-opacity="0.5"/>
<path opacity="0.3" d="M25.8 59.6C28.5615 59.6 30.8 57.3614 30.8 54.6C30.8 51.8386 28.5615 49.6 25.8 49.6C23.0386 49.6 20.8 51.8386 20.8 54.6C20.8 57.3614 23.0386 59.6 25.8 59.6Z" fill="#FF1536" fill-opacity="0.5"/>
<path opacity="0.3" d="M47.3 60.1C50.0615 60.1 52.3 57.8614 52.3 55.1C52.3 52.3386 50.0615 50.1 47.3 50.1C44.5386 50.1 42.3 52.3386 42.3 55.1C42.3 57.8614 44.5386 60.1 47.3 60.1Z" fill="#FF1536" fill-opacity="0.5"/>
<path opacity="0.3" d="M68.6001 60.3C71.3615 60.3 73.6001 58.0615 73.6001 55.3C73.6001 52.5386 71.3615 50.3 68.6001 50.3C65.8387 50.3 63.6001 52.5386 63.6001 55.3C63.6001 58.0615 65.8387 60.3 68.6001 60.3Z" fill="#FF1536" fill-opacity="0.5"/>
<path opacity="0.3" d="M89.7001 60.4C92.4615 60.4 94.7001 58.1614 94.7001 55.4C94.7001 52.6386 92.4615 50.4 89.7001 50.4C86.9386 50.4 84.7001 52.6386 84.7001 55.4C84.7001 58.1614 86.9386 60.4 89.7001 60.4Z" fill="#FF1536" fill-opacity="0.5"/>
<path opacity="0.3" d="M109.8 60.7C112.561 60.7 114.8 58.4614 114.8 55.7C114.8 52.9385 112.561 50.7 109.8 50.7C107.039 50.7 104.8 52.9385 104.8 55.7C104.8 58.4614 107.039 60.7 109.8 60.7Z" fill="#FF1536" fill-opacity="0.5"/>
<path opacity="0.3" d="M5 43.1C7.76142 43.1 10 40.8614 10 38.1C10 35.3386 7.76142 33.1 5 33.1C2.23858 33.1 0 35.3386 0 38.1C0 40.8614 2.23858 43.1 5 43.1Z" fill="#FF1536" fill-opacity="0.5"/>
<path opacity="0.3" d="M25.8 43.1C28.5615 43.1 30.8 40.8614 30.8 38.1C30.8 35.3386 28.5615 33.1 25.8 33.1C23.0386 33.1 20.8 35.3386 20.8 38.1C20.8 40.8614 23.0386 43.1 25.8 43.1Z" fill="#FF1536" fill-opacity="0.5"/>
<path opacity="0.3" d="M47.3 43.6C50.0615 43.6 52.3 41.3614 52.3 38.6C52.3 35.8386 50.0615 33.6 47.3 33.6C44.5386 33.6 42.3 35.8386 42.3 38.6C42.3 41.3614 44.5386 43.6 47.3 43.6Z" fill="#FF1536" fill-opacity="0.5"/>
<path opacity="0.3" d="M68.6001 43.8C71.3615 43.8 73.6001 41.5615 73.6001 38.8C73.6001 36.0386 71.3615 33.8 68.6001 33.8C65.8387 33.8 63.6001 36.0386 63.6001 38.8C63.6001 41.5615 65.8387 43.8 68.6001 43.8Z" fill="#FF1536" fill-opacity="0.5"/>
<path opacity="0.3" d="M89.7001 43.9C92.4615 43.9 94.7001 41.6614 94.7001 38.9C94.7001 36.1386 92.4615 33.9 89.7001 33.9C86.9386 33.9 84.7001 36.1386 84.7001 38.9C84.7001 41.6614 86.9386 43.9 89.7001 43.9Z" fill="#FF1536" fill-opacity="0.5"/>
<path opacity="0.3" d="M109.8 44.1C112.561 44.1 114.8 41.8614 114.8 39.1C114.8 36.3386 112.561 34.1 109.8 34.1C107.039 34.1 104.8 36.3386 104.8 39.1C104.8 41.8614 107.039 44.1 109.8 44.1Z" fill="#FF1536" fill-opacity="0.5"/>
<path opacity="0.3" d="M5 59.6C7.76142 59.6 10 57.3614 10 54.6C10 51.8386 7.76142 49.6 5 49.6C2.23858 49.6 0 51.8386 0 54.6C0 57.3614 2.23858 59.6 5 59.6Z" fill="#FF1536" fill-opacity="0.5"/>
<path opacity="0.3" d="M25.8 59.6C28.5615 59.6 30.8 57.3614 30.8 54.6C30.8 51.8386 28.5615 49.6 25.8 49.6C23.0386 49.6 20.8 51.8386 20.8 54.6C20.8 57.3614 23.0386 59.6 25.8 59.6Z" fill="#FF1536" fill-opacity="0.5"/>
<path opacity="0.3" d="M47.3 60.1C50.0615 60.1 52.3 57.8614 52.3 55.1C52.3 52.3386 50.0615 50.1 47.3 50.1C44.5386 50.1 42.3 52.3386 42.3 55.1C42.3 57.8614 44.5386 60.1 47.3 60.1Z" fill="#FF1536" fill-opacity="0.5"/>
<path opacity="0.3" d="M68.6001 60.3C71.3615 60.3 73.6001 58.0615 73.6001 55.3C73.6001 52.5386 71.3615 50.3 68.6001 50.3C65.8387 50.3 63.6001 52.5386 63.6001 55.3C63.6001 58.0615 65.8387 60.3 68.6001 60.3Z" fill="#FF1536" fill-opacity="0.5"/>
<path opacity="0.3" d="M89.7001 60.4C92.4615 60.4 94.7001 58.1614 94.7001 55.4C94.7001 52.6386 92.4615 50.4 89.7001 50.4C86.9386 50.4 84.7001 52.6386 84.7001 55.4C84.7001 58.1614 86.9386 60.4 89.7001 60.4Z" fill="#FF1536" fill-opacity="0.5"/>
<path opacity="0.3" d="M109.8 60.7C112.561 60.7 114.8 58.4614 114.8 55.7C114.8 52.9385 112.561 50.7 109.8 50.7C107.039 50.7 104.8 52.9385 104.8 55.7C104.8 58.4614 107.039 60.7 109.8 60.7Z" fill="#FF1536" fill-opacity="0.5"/>
<path opacity="0.3" d="M5 77.5C7.76142 77.5 10 75.2614 10 72.5C10 69.7386 7.76142 67.5 5 67.5C2.23858 67.5 0 69.7386 0 72.5C0 75.2614 2.23858 77.5 5 77.5Z" fill="#FF1536" fill-opacity="0.5"/>
<path opacity="0.3" d="M25.8 77.5C28.5615 77.5 30.8 75.2614 30.8 72.5C30.8 69.7386 28.5615 67.5 25.8 67.5C23.0386 67.5 20.8 69.7386 20.8 72.5C20.8 75.2614 23.0386 77.5 25.8 77.5Z" fill="#FF1536" fill-opacity="0.5"/>
<path opacity="0.3" d="M47.3 78C50.0615 78 52.3 75.7614 52.3 73C52.3 70.2386 50.0615 68 47.3 68C44.5386 68 42.3 70.2386 42.3 73C42.3 75.7614 44.5386 78 47.3 78Z" fill="#FF1536" fill-opacity="0.5"/>
<path opacity="0.3" d="M68.6001 78.2C71.3615 78.2 73.6001 75.9614 73.6001 73.2C73.6001 70.4385 71.3615 68.2 68.6001 68.2C65.8387 68.2 63.6001 70.4385 63.6001 73.2C63.6001 75.9614 65.8387 78.2 68.6001 78.2Z" fill="#FF1536" fill-opacity="0.5"/>
<path opacity="0.3" d="M89.7001 78.3C92.4615 78.3 94.7001 76.0615 94.7001 73.3C94.7001 70.5386 92.4615 68.3 89.7001 68.3C86.9386 68.3 84.7001 70.5386 84.7001 73.3C84.7001 76.0615 86.9386 78.3 89.7001 78.3Z" fill="#FF1536" fill-opacity="0.5"/>
<path opacity="0.3" d="M109.8 78.6C112.561 78.6 114.8 76.3614 114.8 73.6C114.8 70.8386 112.561 68.6 109.8 68.6C107.039 68.6 104.8 70.8386 104.8 73.6C104.8 76.3614 107.039 78.6 109.8 78.6Z" fill="#FF1536" fill-opacity="0.5"/>
<path opacity="0.3" d="M5 77.5C7.76142 77.5 10 75.2614 10 72.5C10 69.7386 7.76142 67.5 5 67.5C2.23858 67.5 0 69.7386 0 72.5C0 75.2614 2.23858 77.5 5 77.5Z" fill="#FF1536" fill-opacity="0.5"/>
<path opacity="0.3" d="M25.8 77.5C28.5615 77.5 30.8 75.2614 30.8 72.5C30.8 69.7386 28.5615 67.5 25.8 67.5C23.0386 67.5 20.8 69.7386 20.8 72.5C20.8 75.2614 23.0386 77.5 25.8 77.5Z" fill="#FF1536" fill-opacity="0.5"/>
<path opacity="0.3" d="M47.3 78C50.0615 78 52.3 75.7614 52.3 73C52.3 70.2386 50.0615 68 47.3 68C44.5386 68 42.3 70.2386 42.3 73C42.3 75.7614 44.5386 78 47.3 78Z" fill="#FF1536" fill-opacity="0.5"/>
<path opacity="0.3" d="M68.6001 78.2C71.3615 78.2 73.6001 75.9614 73.6001 73.2C73.6001 70.4385 71.3615 68.2 68.6001 68.2C65.8387 68.2 63.6001 70.4385 63.6001 73.2C63.6001 75.9614 65.8387 78.2 68.6001 78.2Z" fill="#FF1536" fill-opacity="0.5"/>
<path opacity="0.3" d="M89.7001 78.3C92.4615 78.3 94.7001 76.0615 94.7001 73.3C94.7001 70.5386 92.4615 68.3 89.7001 68.3C86.9386 68.3 84.7001 70.5386 84.7001 73.3C84.7001 76.0615 86.9386 78.3 89.7001 78.3Z" fill="#FF1536" fill-opacity="0.5"/>
<path opacity="0.3" d="M109.8 78.6C112.561 78.6 114.8 76.3614 114.8 73.6C114.8 70.8386 112.561 68.6 109.8 68.6C107.039 68.6 104.8 70.8386 104.8 73.6C104.8 76.3614 107.039 78.6 109.8 78.6Z" fill="#FF1536" fill-opacity="0.5"/>
<path opacity="0.3" d="M5 77.5C7.76142 77.5 10 75.2614 10 72.5C10 69.7386 7.76142 67.5 5 67.5C2.23858 67.5 0 69.7386 0 72.5C0 75.2614 2.23858 77.5 5 77.5Z" fill="#FF1536" fill-opacity="0.5"/>
<path opacity="0.3" d="M25.8 77.5C28.5615 77.5 30.8 75.2614 30.8 72.5C30.8 69.7386 28.5615 67.5 25.8 67.5C23.0386 67.5 20.8 69.7386 20.8 72.5C20.8 75.2614 23.0386 77.5 25.8 77.5Z" fill="#FF1536" fill-opacity="0.5"/>
<path opacity="0.3" d="M47.3 78C50.0615 78 52.3 75.7614 52.3 73C52.3 70.2386 50.0615 68 47.3 68C44.5386 68 42.3 70.2386 42.3 73C42.3 75.7614 44.5386 78 47.3 78Z" fill="#FF1536" fill-opacity="0.5"/>
<path opacity="0.3" d="M68.6001 78.2C71.3615 78.2 73.6001 75.9614 73.6001 73.2C73.6001 70.4385 71.3615 68.2 68.6001 68.2C65.8387 68.2 63.6001 70.4385 63.6001 73.2C63.6001 75.9614 65.8387 78.2 68.6001 78.2Z" fill="#FF1536" fill-opacity="0.5"/>
<path opacity="0.3" d="M89.7001 78.3C92.4615 78.3 94.7001 76.0615 94.7001 73.3C94.7001 70.5386 92.4615 68.3 89.7001 68.3C86.9386 68.3 84.7001 70.5386 84.7001 73.3C84.7001 76.0615 86.9386 78.3 89.7001 78.3Z" fill="#FF1536" fill-opacity="0.5"/>
<path opacity="0.3" d="M109.8 78.6C112.561 78.6 114.8 76.3614 114.8 73.6C114.8 70.8386 112.561 68.6 109.8 68.6C107.039 68.6 104.8 70.8386 104.8 73.6C104.8 76.3614 107.039 78.6 109.8 78.6Z" fill="#FF1536" fill-opacity="0.5"/>
<path opacity="0.3" d="M5.6001 93.4C8.36152 93.4 10.6001 91.1614 10.6001 88.4C10.6001 85.6386 8.36152 83.4 5.6001 83.4C2.83867 83.4 0.600098 85.6386 0.600098 88.4C0.600098 91.1614 2.83867 93.4 5.6001 93.4Z" fill="#FF1536" fill-opacity="0.5"/>
<path opacity="0.3" d="M26.5 93.4C29.2614 93.4 31.5 91.1614 31.5 88.4C31.5 85.6386 29.2614 83.4 26.5 83.4C23.7386 83.4 21.5 85.6386 21.5 88.4C21.5 91.1614 23.7386 93.4 26.5 93.4Z" fill="#FF1536" fill-opacity="0.5"/>
<path opacity="0.3" d="M47.9 93.9C50.6614 93.9 52.9 91.6614 52.9 88.9C52.9 86.1386 50.6614 83.9 47.9 83.9C45.1386 83.9 42.9 86.1386 42.9 88.9C42.9 91.6614 45.1386 93.9 47.9 93.9Z" fill="#FF1536" fill-opacity="0.5"/>
<path opacity="0.3" d="M69.3 94.1C72.0615 94.1 74.3 91.8614 74.3 89.1C74.3 86.3386 72.0615 84.1 69.3 84.1C66.5386 84.1 64.3 86.3386 64.3 89.1C64.3 91.8614 66.5386 94.1 69.3 94.1Z" fill="#FF1536" fill-opacity="0.5"/>
<path opacity="0.3" d="M90.4 94.2C93.1614 94.2 95.4 91.9614 95.4 89.2C95.4 86.4385 93.1614 84.2 90.4 84.2C87.6386 84.2 85.4 86.4385 85.4 89.2C85.4 91.9614 87.6386 94.2 90.4 94.2Z" fill="#FF1536" fill-opacity="0.5"/>
<path opacity="0.3" d="M110.4 94.4C113.161 94.4 115.4 92.1614 115.4 89.4C115.4 86.6386 113.161 84.4 110.4 84.4C107.639 84.4 105.4 86.6386 105.4 89.4C105.4 92.1614 107.639 94.4 110.4 94.4Z" fill="#FF1536" fill-opacity="0.5"/>
<path opacity="0.3" d="M5.6001 93.4C8.36152 93.4 10.6001 91.1614 10.6001 88.4C10.6001 85.6386 8.36152 83.4 5.6001 83.4C2.83867 83.4 0.600098 85.6386 0.600098 88.4C0.600098 91.1614 2.83867 93.4 5.6001 93.4Z" fill="#FF1536" fill-opacity="0.5"/>
<path opacity="0.3" d="M26.5 93.4C29.2614 93.4 31.5 91.1614 31.5 88.4C31.5 85.6386 29.2614 83.4 26.5 83.4C23.7386 83.4 21.5 85.6386 21.5 88.4C21.5 91.1614 23.7386 93.4 26.5 93.4Z" fill="#FF1536" fill-opacity="0.5"/>
<path opacity="0.3" d="M47.9 93.9C50.6614 93.9 52.9 91.6614 52.9 88.9C52.9 86.1386 50.6614 83.9 47.9 83.9C45.1386 83.9 42.9 86.1386 42.9 88.9C42.9 91.6614 45.1386 93.9 47.9 93.9Z" fill="#FF1536" fill-opacity="0.5"/>
<path opacity="0.3" d="M69.3 94.1C72.0615 94.1 74.3 91.8614 74.3 89.1C74.3 86.3386 72.0615 84.1 69.3 84.1C66.5386 84.1 64.3 86.3386 64.3 89.1C64.3 91.8614 66.5386 94.1 69.3 94.1Z" fill="#FF1536" fill-opacity="0.5"/>
<path opacity="0.3" d="M90.4 94.2C93.1614 94.2 95.4 91.9614 95.4 89.2C95.4 86.4385 93.1614 84.2 90.4 84.2C87.6386 84.2 85.4 86.4385 85.4 89.2C85.4 91.9614 87.6386 94.2 90.4 94.2Z" fill="#FF1536" fill-opacity="0.5"/>
<path opacity="0.3" d="M110.4 94.4C113.161 94.4 115.4 92.1614 115.4 89.4C115.4 86.6386 113.161 84.4 110.4 84.4C107.639 84.4 105.4 86.6386 105.4 89.4C105.4 92.1614 107.639 94.4 110.4 94.4Z" fill="#FF1536" fill-opacity="0.5"/>
<path opacity="0.3" d="M5.6001 93.4C8.36152 93.4 10.6001 91.1614 10.6001 88.4C10.6001 85.6386 8.36152 83.4 5.6001 83.4C2.83867 83.4 0.600098 85.6386 0.600098 88.4C0.600098 91.1614 2.83867 93.4 5.6001 93.4Z" fill="#FF1536" fill-opacity="0.5"/>
<path opacity="0.3" d="M26.5 93.4C29.2614 93.4 31.5 91.1614 31.5 88.4C31.5 85.6386 29.2614 83.4 26.5 83.4C23.7386 83.4 21.5 85.6386 21.5 88.4C21.5 91.1614 23.7386 93.4 26.5 93.4Z" fill="#FF1536" fill-opacity="0.5"/>
<path opacity="0.3" d="M47.9 93.9C50.6614 93.9 52.9 91.6614 52.9 88.9C52.9 86.1386 50.6614 83.9 47.9 83.9C45.1386 83.9 42.9 86.1386 42.9 88.9C42.9 91.6614 45.1386 93.9 47.9 93.9Z" fill="#FF1536" fill-opacity="0.5"/>
<path opacity="0.3" d="M69.3 94.1C72.0615 94.1 74.3 91.8614 74.3 89.1C74.3 86.3386 72.0615 84.1 69.3 84.1C66.5386 84.1 64.3 86.3386 64.3 89.1C64.3 91.8614 66.5386 94.1 69.3 94.1Z" fill="#FF1536" fill-opacity="0.5"/>
<path opacity="0.3" d="M90.4 94.2C93.1614 94.2 95.4 91.9614 95.4 89.2C95.4 86.4385 93.1614 84.2 90.4 84.2C87.6386 84.2 85.4 86.4385 85.4 89.2C85.4 91.9614 87.6386 94.2 90.4 94.2Z" fill="#FF1536" fill-opacity="0.5"/>
<path opacity="0.3" d="M110.4 94.4C113.161 94.4 115.4 92.1614 115.4 89.4C115.4 86.6386 113.161 84.4 110.4 84.4C107.639 84.4 105.4 86.6386 105.4 89.4C105.4 92.1614 107.639 94.4 110.4 94.4Z" fill="#FF1536" fill-opacity="0.5"/>
</svg>
