<svg width="366" height="531" viewBox="0 0 366 531" fill="none" xmlns="http://www.w3.org/2000/svg">
<path d="M199.88 273.227C188.164 267.136 172.308 269.078 161.737 275.257C157.245 277.905 154.338 280.995 151.695 283.819C140.596 295.647 137.16 308.8 136.279 312.595C134.341 321.069 130.553 337.4 139.274 349.051C142.357 353.112 149.405 354.083 163.763 360.615C174.686 365.646 181.469 365.646 188.252 367.765C200.673 371.737 207.543 374.032 211.596 371.913C218.467 368.383 220.228 361.497 220.581 353.377C221.021 342.872 222.783 339.253 222.607 337.399C219.524 305.887 217.233 282.319 199.88 273.227Z" fill="#FFDEBB"/>
<path d="M211.067 291.146C211.948 295.294 208.513 298.56 207.808 302.797C206.486 311.536 189.309 317.539 182.438 318.068C169.665 318.951 157.421 329.632 150.55 334.575C150.021 334.928 143.767 342.519 141.829 346.138C137.424 354.612 133.196 343.314 133.901 327.69C134.165 321.511 136.72 311.536 137.953 306.593C138.482 304.739 139.098 302.886 139.891 301.032L140.948 298.737C142.534 295.118 144.648 291.852 147.29 288.939L155.042 280.377C158.83 276.228 163.499 273.05 168.696 271.02C171.603 269.872 174.686 269.078 177.769 268.725C181.205 268.372 185.433 268.019 187.988 268.46C192.568 269.343 203.051 272.521 206.222 275.963C208.16 278.082 209.922 285.673 211.067 291.146Z" fill="#26235C"/>
<path opacity="0.1" d="M201.553 311.448C201.553 311.448 200.761 315.332 202.082 319.745C203.403 324.247 205.253 328.396 206.575 329.985C207.896 331.574 210.01 333.957 211.508 335.369C213.005 336.782 216.088 339.606 216.617 341.019C217.145 342.431 218.202 344.108 219.347 347.551C220.493 350.993 220.669 351.699 220.669 351.699L221.021 347.286L217.762 337.664L212.036 329.543L207.632 318.333L201.553 311.448Z" fill="#221F1F"/>
<path d="M163.235 524.622C163.146 518.531 201.906 511.734 214.238 515C214.679 515.088 216.176 515.53 217.938 515.353C224.633 514.559 228.773 506.35 230.094 503.79C238.727 486.665 224.545 460.449 226.395 422.051C227.011 409.34 228.685 409.605 228.861 396.188C229.037 384.36 229.213 365.381 220.493 345.962C213.974 331.485 210.539 334.487 205.253 322.217C193.978 296.089 203.491 268.372 205.87 262.016C213.269 242.244 220.669 243.921 229.213 220.529C233.266 209.319 240.753 188.928 231.68 177.806C224.809 169.244 214.767 174.187 208.953 166.596C198.735 153.267 211.507 115.222 234.146 109.838C246.303 106.925 257.138 114.428 272.113 124.844C280.746 130.846 299.244 143.998 308.846 167.567C314.748 181.955 309.991 182.484 317.567 205.965C324.086 226.355 329.019 230.327 327.873 240.92C326.64 252.13 319.857 259.545 309.199 271.197C289.907 292.205 275.02 295.471 272.465 311.183C271.672 315.95 272.465 319.392 273.434 323.982C279.601 354.348 283.476 385.242 284.357 398.924C284.445 400.778 284.357 399.366 277.222 458.507C273.258 491.167 271.32 507.85 259.428 513.764C256.257 515.353 253.262 515.442 247.272 515.618C187.988 517.472 184.816 516.236 184.376 514.382C183.583 510.763 193.361 504.584 202.17 502.201C212.565 499.376 217.938 502.907 227.099 501.848C240.929 500.259 252.293 487.548 253.262 480.398C256.785 454.093 267.268 439.617 250.091 327.337C248.417 316.568 234.146 297.236 244.805 295.206C245.598 295.03 267.797 383.918 260.397 443.766C256.609 474.131 246.919 483.841 247.36 508.645C247.448 512.529 247.8 522.591 241.722 527.093C237.758 530.006 233.618 528.594 223.928 528.064C217.145 527.711 209.217 528.417 193.449 529.918C181.733 531.065 176.624 532.036 167.375 528.77C163.587 527.27 163.235 526.299 163.235 524.622Z" fill="#FFDEBB"/>
<path d="M165.965 273.138C165.173 263.164 134.782 260.251 127.735 272.962C123.859 280.024 122.978 285.143 119.102 296.442C113.905 311.713 97.9604 317.715 92.3227 324.159C65.8959 353.906 110.91 441.736 123.947 441.647C126.413 441.647 117.164 425.582 126.942 403.338C138.041 378.092 134.341 366.352 134.165 358.673C133.989 346.933 132.227 334.84 131.787 332.103C128.792 314.714 127.206 303.239 138.834 298.649C144.207 296.53 146.057 299.267 151.871 292.205C157.068 285.673 166.406 278.876 165.965 273.138Z" fill="#26235C"/>
<path d="M19.9134 221.765C20.0014 231.298 23.3488 237.389 22.2918 259.81C21.6752 272.079 19.6491 271.638 19.2087 281.966C18.1516 304.475 27.1367 327.337 32.5982 326.984C37.267 326.631 34.2719 310.124 46.2521 288.056C55.5015 271.02 63.958 265.812 65.5436 253.984C67.2173 241.361 59.7297 230.592 47.221 223.795C40.0858 220.088 19.8253 213.909 19.9134 221.765Z" fill="#FFDEBB"/>
<path d="M212.741 21.4788C212.653 21.4788 212.653 21.4788 212.565 21.4788C168.696 22.6263 136.103 25.3627 127.47 28.4522C124.828 29.4231 122.097 30.6589 122.097 30.6589C121.48 30.9237 105.888 38.4267 106.681 42.0458C107.738 46.8125 135.222 35.5138 159.623 48.5779C172.924 55.6395 175.479 64.6431 185.521 64.9079C196.444 65.1728 205.694 54.9334 212.124 45.4001L212.741 21.4788Z" fill="#FFDEBB"/>
<path opacity="0.1" d="M250.443 326.807C250.443 326.807 262.247 361.409 263.04 396.718C263.921 432.026 255.728 469.276 255.728 469.276L258.9 428.142C258.9 428.142 261.102 408.722 258.635 395.747C255.024 376.68 257.402 357.79 254.759 345.609C250.267 324.512 250.443 326.807 250.443 326.807Z" fill="#221F1F"/>
<path opacity="0.08" d="M231.328 500.877C231.328 500.877 230.887 504.32 227.452 506.526C222.695 509.616 196.62 513.323 196.62 513.323L187.107 515.442L195.563 511.911C195.563 511.911 208.953 509.086 209.658 509.086C210.01 509.086 214.679 508.115 218.819 507.144C222.959 506.173 226.835 504.496 230.182 501.936L231.328 500.877Z" fill="#221F1F"/>
<path opacity="0.06" d="M269.911 123.078C269.911 123.078 269.118 122.637 270.615 123.785C271.32 124.314 262.335 124.491 262.335 124.491C262.335 124.491 257.843 124.402 255.376 124.667C252.645 124.932 244.629 124.579 242.779 124.667C241.017 124.491 238.727 124.844 235.644 125.285C232.649 125.726 231.24 126.962 230.182 127.668C229.213 128.286 227.804 129.875 227.187 130.581C226.923 130.934 225.073 132.965 224.104 133.847L221.638 131.641L226.747 124.226L250.443 121.754H265.154L269.911 123.078Z" fill="#1E3768"/>
<path opacity="0.1" d="M306.204 273.845C306.204 273.845 307.701 269.078 307.877 268.019C308.053 266.783 307.701 263.252 306.027 263.252C304.354 263.252 298.804 266.518 298.804 266.518C298.804 266.518 293.519 269.166 288.674 273.668C283.829 278.17 277.31 285.761 277.31 285.761L251.5 313.39L273.787 286.468L282.419 274.11L287.881 262.017L311.489 257.78L310.079 267.225L306.204 273.845Z" fill="#221F1F"/>
<path opacity="0.1" d="M265.77 237.477C265.77 237.477 272.201 252.836 264.009 280.112C255.816 307.476 259.428 298.56 259.428 298.56L278.191 263.164L273.434 242.067L265.77 237.477Z" fill="#221F1F"/>
<path d="M235.204 197.579C235.38 197.049 235.732 196.696 236.261 196.52C240.313 195.549 258.107 191.753 274.315 194.401C291.757 197.226 315.365 206.671 317.655 207.553C317.743 207.642 318.184 207.995 318.272 208.083L325.671 227.15C325.671 227.15 333.423 243.568 322.06 256.632C317.479 261.928 314.043 265.9 311.489 268.99C309.815 271.02 304.794 276.493 306.908 272.785C309.287 268.548 310.256 258.309 304.53 261.399C294.576 266.871 287.264 272.168 286.207 272.962C286.119 273.05 284.269 274.727 284.181 274.816L265.418 296.972L250.795 314.626C250.795 314.626 253.526 306.328 258.107 297.943C262.599 289.822 266.828 276.228 267.268 274.286L267.62 272.697C267.797 271.814 269.382 254.867 269.118 249.923C268.854 244.804 267.885 229.621 247.888 224.943C235.292 222.03 231.416 219.911 230.271 218.764C229.918 218.411 229.83 217.881 229.918 217.351L235.204 197.579Z" fill="url(#paint0_linear)"/>
<path opacity="0.1" d="M310.608 34.278C310.608 34.278 309.111 35.5137 306.556 36.3082C303.649 37.1909 297.835 37.4557 295.721 37.7205C295.633 37.7205 295.633 37.6322 295.721 37.6322C298.364 36.7495 307.789 33.6601 309.375 33.5718C311.137 33.4835 310.608 34.278 310.608 34.278Z" fill="#211C53"/>
<path opacity="0.06" d="M220.933 131.464C220.933 131.464 231.592 136.849 261.366 180.19C284.974 214.527 243.924 241.538 243.924 241.538C243.924 241.538 226.923 253.543 217.057 266.871C209.041 277.64 205.606 282.672 205.606 282.672L199.704 292.47C199.704 292.47 199.175 282.23 205.958 262.016C210.098 249.747 221.55 237.036 221.55 237.036C221.55 237.036 230.623 218.852 233.442 206.229C235.292 197.844 236.613 187.781 234.499 182.573C232.473 177.453 224.281 171.539 224.281 171.539L215.031 155.65L220.933 131.464Z" fill="#1E3768"/>
<path d="M228.685 174.717C229.478 175.511 213.445 179.66 193.009 177.277C169.048 174.452 159.975 167.743 147.379 152.208C146.41 151.06 138.922 143.028 136.367 140.291C130.465 134.024 116.371 132.788 112.495 131.905C80.6949 124.844 54.6205 108.072 51.5374 112.662C51.4493 112.839 52.5945 114.428 53.5634 117.076C54.5324 119.636 55.061 122.284 55.3252 122.814C56.5585 125.197 56.7346 131.552 58.2322 145.058C59.6416 157.504 54.6205 164.919 53.3873 179.748C50.8327 209.848 52.9468 226.267 51.8017 226.796C40.1739 232.357 32.3339 233.152 22.3798 229.974C18.5039 228.738 17.7111 220.176 18.2396 215.851C18.6801 212.585 16.4779 196.166 12.1615 163.33C9.16644 140.556 7.66889 129.257 7.22844 127.315C3.00016 109.22 -1.84472 100.481 0.709868 86.0929C2.9121 73.6467 8.46173 69.1449 9.95924 68.0857C15.5089 63.937 30.9245 62.4364 35.3289 62.5246C49.3351 62.5246 54.5324 61.8185 68.5386 62.5246C121.656 65.0845 112.495 64.908 127.118 67.203C153.016 71.2634 163.235 84.0627 188.957 82.9152C196.356 82.5621 202.963 81.7677 204.725 81.4146C230.799 75.8535 278.632 43.5464 295.809 37.7206C296.337 37.544 263.745 47.3421 240.929 47.7834C220.052 48.1365 217.321 50.8729 208.601 52.0204C204.196 52.6383 209.393 44.4291 209.217 25.1861C209.217 20.1547 210.451 21.0374 213.534 20.0664C217.321 18.7424 219.876 18.9189 221.638 18.6541C230.711 17.2418 232.561 16.6239 281.627 8.59124C295.721 6.29621 303.561 5.41349 317.479 2.0592C324.086 0.470332 339.589 -1.55989 349.543 1.88267C352.627 2.94191 359.409 5.32522 363.285 12.0338C366.897 18.301 366.016 24.9213 365.576 27.8342C363.638 39.9273 354.477 47.0773 348.751 53.7858C328.49 77.2659 309.463 91.7422 303.561 97.4798C284.974 115.664 271.496 123.608 269.999 123.343C260.397 121.931 260.397 123.255 241.898 123.255C222.166 123.255 219.083 134.554 218.29 147.971C216.969 166.596 227.011 172.951 228.685 174.717Z" fill="url(#paint1_linear)"/>
<path opacity="0.1" d="M53.0349 112.133C53.0349 112.133 49.9518 111.515 48.5423 109.396C47.0448 107.278 45.0188 102.599 45.0188 102.599L54.3562 111.603L53.0349 112.133Z" fill="#211C53"/>
<path opacity="0.1" d="M295.721 37.8088C295.721 37.8088 299.861 38.6033 305.235 37.1027C310.608 35.6021 312.722 33.1305 312.722 33.1305C312.722 33.1305 300.478 33.7484 296.426 36.22C292.374 38.6033 295.721 37.8088 295.721 37.8088Z" fill="#211C53"/>
<defs>
<linearGradient id="paint0_linear" x1="229.716" y1="254.032" x2="328.216" y2="254.032" gradientUnits="userSpaceOnUse">
<stop offset="1.43564e-07" stop-color="#6750A0"/>
<stop offset="0.1431" stop-color="#7057A3"/>
<stop offset="0.3748" stop-color="#8869AB"/>
<stop offset="0.6664" stop-color="#AF88B8"/>
<stop offset="1" stop-color="#E4B1C9"/>
</linearGradient>
<linearGradient id="paint1_linear" x1="0.0724508" y1="115.843" x2="365.947" y2="115.843" gradientUnits="userSpaceOnUse">
<stop offset="1.43564e-07" stop-color="#6750A0"/>
<stop offset="0.1431" stop-color="#7057A3"/>
<stop offset="0.3748" stop-color="#8869AB"/>
<stop offset="0.6664" stop-color="#AF88B8"/>
<stop offset="1" stop-color="#E4B1C9"/>
</linearGradient>
</defs>
</svg>
