<svg width="108" height="99" viewBox="0 0 108 99" fill="none" xmlns="http://www.w3.org/2000/svg">
<path d="M53.5574 97C53.5574 97 96.6817 67.7335 103.157 47.9477C109.633 28.0245 103.02 16.7575 103.02 16.7575C103.02 16.7575 95.5795 2.74259 80.0106 2.05558C64.4418 1.36858 58.5174 7.27684 58.5174 7.27684C58.5174 7.27684 45.0152 17.8568 45.2907 31.7343C45.5663 45.6119 49.8374 50.2835 49.8374 50.2835C49.8374 50.2835 51.904 52.7567 54.1085 53.1689C55.8996 53.5811 59.2062 49.4591 60.0329 47.1233C60.4462 46.2989 60.8596 45.337 61.1351 44.3752C61.824 42.3142 62.6507 36.9556 62.3751 33.1083C61.824 27.6123 61.5485 25.4138 59.6196 21.017C58.104 17.5819 55.4862 12.3607 43.9129 5.21582C32.3396 -1.92906 18.0108 5.62802 18.0108 5.62802C18.0108 5.62802 2.85523 14.1469 2.02857 30.9099C1.47746 44.65 9.05522 55.6422 11.3974 59.2146C11.8108 59.9016 15.8063 65.1229 16.3574 65.6725C19.6641 69.3823 26.4152 76.2524 31.9263 81.1988C38.4018 86.9697 53.5574 97 53.5574 97Z" stroke="#7F3F98" stroke-width="2.5" stroke-miterlimit="10"/>
</svg>
