<svg width="375" height="812" viewBox="0 0 375 812" fill="none" xmlns="http://www.w3.org/2000/svg">
<g clip-path="url(#clip0)">
<rect width="375" height="812" fill="white"/>
<rect width="375" height="812" fill="url(#paint0_linear)"/>
<path d="M-1.8883 812L-8 6.12368L375 0L-1.8883 812Z" fill="url(#paint1_linear)" fill-opacity="0.04"/>
<path d="M145.391 760.806V764.095H149.494V764.601H145.391V768H144.83V760.3H149.978V760.806H145.391ZM154.734 768.044C154.191 768.044 153.7 767.919 153.26 767.67C152.827 767.421 152.486 767.076 152.237 766.636C151.987 766.189 151.863 765.686 151.863 765.129C151.863 764.572 151.987 764.073 152.237 763.633C152.486 763.186 152.827 762.837 153.26 762.588C153.7 762.339 154.191 762.214 154.734 762.214C155.276 762.214 155.764 762.339 156.197 762.588C156.637 762.837 156.981 763.186 157.231 763.633C157.48 764.073 157.605 764.572 157.605 765.129C157.605 765.686 157.48 766.189 157.231 766.636C156.981 767.076 156.637 767.421 156.197 767.67C155.764 767.919 155.276 768.044 154.734 768.044ZM154.734 767.549C155.174 767.549 155.566 767.446 155.911 767.241C156.263 767.036 156.538 766.75 156.736 766.383C156.941 766.016 157.044 765.598 157.044 765.129C157.044 764.66 156.941 764.242 156.736 763.875C156.538 763.508 156.263 763.222 155.911 763.017C155.566 762.812 155.174 762.709 154.734 762.709C154.294 762.709 153.898 762.812 153.546 763.017C153.201 763.222 152.926 763.508 152.721 763.875C152.523 764.242 152.424 764.66 152.424 765.129C152.424 765.598 152.523 766.016 152.721 766.383C152.926 766.75 153.201 767.036 153.546 767.241C153.898 767.446 154.294 767.549 154.734 767.549ZM160.939 763.512C161.115 763.094 161.39 762.775 161.764 762.555C162.138 762.328 162.593 762.214 163.128 762.214V762.753L162.996 762.742C162.358 762.742 161.859 762.944 161.5 763.347C161.141 763.743 160.961 764.297 160.961 765.008V768H160.411V762.258H160.939V763.512ZM170.86 762.258V767.384C170.86 768.337 170.629 769.041 170.167 769.496C169.705 769.951 169.008 770.178 168.077 770.178C167.549 770.178 167.05 770.097 166.581 769.936C166.111 769.775 165.734 769.551 165.448 769.265L165.745 768.847C166.031 769.111 166.375 769.316 166.779 769.463C167.182 769.61 167.611 769.683 168.066 769.683C168.828 769.683 169.393 769.5 169.76 769.133C170.126 768.774 170.31 768.213 170.31 767.45V766.482C170.075 766.9 169.749 767.223 169.331 767.45C168.913 767.677 168.443 767.791 167.923 767.791C167.387 767.791 166.9 767.674 166.46 767.439C166.027 767.197 165.686 766.863 165.437 766.438C165.187 766.013 165.063 765.532 165.063 764.997C165.063 764.462 165.187 763.981 165.437 763.556C165.686 763.131 166.027 762.801 166.46 762.566C166.9 762.331 167.387 762.214 167.923 762.214C168.451 762.214 168.927 762.331 169.353 762.566C169.778 762.801 170.104 763.131 170.332 763.556V762.258H170.86ZM167.967 767.296C168.414 767.296 168.817 767.201 169.177 767.01C169.536 766.812 169.815 766.541 170.013 766.196C170.218 765.844 170.321 765.444 170.321 764.997C170.321 764.55 170.218 764.154 170.013 763.809C169.815 763.464 169.536 763.197 169.177 763.006C168.817 762.808 168.414 762.709 167.967 762.709C167.519 762.709 167.116 762.808 166.757 763.006C166.405 763.197 166.126 763.464 165.921 763.809C165.723 764.154 165.624 764.55 165.624 764.997C165.624 765.444 165.723 765.844 165.921 766.196C166.126 766.541 166.405 766.812 166.757 767.01C167.116 767.201 167.519 767.296 167.967 767.296ZM176.532 768.044C175.989 768.044 175.498 767.919 175.058 767.67C174.625 767.421 174.284 767.076 174.035 766.636C173.785 766.189 173.661 765.686 173.661 765.129C173.661 764.572 173.785 764.073 174.035 763.633C174.284 763.186 174.625 762.837 175.058 762.588C175.498 762.339 175.989 762.214 176.532 762.214C177.074 762.214 177.562 762.339 177.995 762.588C178.435 762.837 178.779 763.186 179.029 763.633C179.278 764.073 179.403 764.572 179.403 765.129C179.403 765.686 179.278 766.189 179.029 766.636C178.779 767.076 178.435 767.421 177.995 767.67C177.562 767.919 177.074 768.044 176.532 768.044ZM176.532 767.549C176.972 767.549 177.364 767.446 177.709 767.241C178.061 767.036 178.336 766.75 178.534 766.383C178.739 766.016 178.842 765.598 178.842 765.129C178.842 764.66 178.739 764.242 178.534 763.875C178.336 763.508 178.061 763.222 177.709 763.017C177.364 762.812 176.972 762.709 176.532 762.709C176.092 762.709 175.696 762.812 175.344 763.017C174.999 763.222 174.724 763.508 174.519 763.875C174.321 764.242 174.222 764.66 174.222 765.129C174.222 765.598 174.321 766.016 174.519 766.383C174.724 766.75 174.999 767.036 175.344 767.241C175.696 767.446 176.092 767.549 176.532 767.549ZM185.058 767.637C184.919 767.769 184.743 767.872 184.53 767.945C184.325 768.011 184.108 768.044 183.881 768.044C183.382 768.044 182.997 767.908 182.726 767.637C182.455 767.358 182.319 766.973 182.319 766.482V762.731H181.263V762.258H182.319V761.004H182.869V762.258H184.695V762.731H182.869V766.427C182.869 766.801 182.957 767.087 183.133 767.285C183.316 767.476 183.584 767.571 183.936 767.571C184.295 767.571 184.592 767.465 184.827 767.252L185.058 767.637ZM194.554 760.3C195.522 760.3 196.281 760.531 196.831 760.993C197.381 761.448 197.656 762.082 197.656 762.896C197.656 763.703 197.381 764.337 196.831 764.799C196.281 765.254 195.522 765.481 194.554 765.481H192.354V768H191.793V760.3H194.554ZM194.554 764.975C195.375 764.975 196.002 764.795 196.435 764.436C196.868 764.077 197.084 763.563 197.084 762.896C197.084 762.229 196.868 761.715 196.435 761.356C196.002 760.989 195.375 760.806 194.554 760.806H192.354V764.975H194.554ZM202.355 762.214C203.066 762.214 203.613 762.397 203.994 762.764C204.375 763.123 204.566 763.655 204.566 764.359V768H204.038V766.977C203.855 767.314 203.587 767.578 203.235 767.769C202.883 767.952 202.461 768.044 201.97 768.044C201.332 768.044 200.826 767.894 200.452 767.593C200.085 767.292 199.902 766.896 199.902 766.405C199.902 765.928 200.071 765.543 200.408 765.25C200.753 764.949 201.299 764.799 202.047 764.799H204.016V764.337C204.016 763.802 203.869 763.395 203.576 763.116C203.29 762.837 202.868 762.698 202.311 762.698C201.93 762.698 201.563 762.764 201.211 762.896C200.866 763.028 200.573 763.204 200.331 763.424L200.056 763.028C200.342 762.771 200.687 762.573 201.09 762.434C201.493 762.287 201.915 762.214 202.355 762.214ZM202.047 767.593C202.524 767.593 202.927 767.483 203.257 767.263C203.594 767.043 203.847 766.724 204.016 766.306V765.228H202.058C201.493 765.228 201.083 765.331 200.826 765.536C200.577 765.741 200.452 766.024 200.452 766.383C200.452 766.757 200.591 767.054 200.87 767.274C201.149 767.487 201.541 767.593 202.047 767.593ZM209.384 768.044C208.922 768.044 208.482 767.974 208.064 767.835C207.646 767.696 207.32 767.52 207.085 767.307L207.338 766.867C207.573 767.065 207.874 767.23 208.24 767.362C208.614 767.494 209.003 767.56 209.406 767.56C209.986 767.56 210.411 767.465 210.682 767.274C210.961 767.083 211.1 766.819 211.1 766.482C211.1 766.24 211.023 766.049 210.869 765.91C210.723 765.771 210.539 765.668 210.319 765.602C210.099 765.536 209.795 765.466 209.406 765.393C208.952 765.312 208.585 765.224 208.306 765.129C208.028 765.034 207.789 764.88 207.591 764.667C207.393 764.454 207.294 764.161 207.294 763.787C207.294 763.332 207.481 762.958 207.855 762.665C208.237 762.364 208.776 762.214 209.472 762.214C209.839 762.214 210.202 762.265 210.561 762.368C210.921 762.471 211.214 762.606 211.441 762.775L211.188 763.215C210.954 763.046 210.686 762.918 210.385 762.83C210.085 762.742 209.777 762.698 209.461 762.698C208.926 762.698 208.523 762.797 208.251 762.995C207.98 763.193 207.844 763.453 207.844 763.776C207.844 764.033 207.921 764.234 208.075 764.381C208.229 764.52 208.416 764.627 208.636 764.7C208.864 764.766 209.179 764.839 209.582 764.92C210.03 765.001 210.389 765.089 210.66 765.184C210.939 765.272 211.174 765.419 211.364 765.624C211.555 765.829 211.65 766.112 211.65 766.471C211.65 766.948 211.452 767.329 211.056 767.615C210.66 767.901 210.103 768.044 209.384 768.044ZM215.737 768.044C215.275 768.044 214.835 767.974 214.417 767.835C213.999 767.696 213.673 767.52 213.438 767.307L213.691 766.867C213.926 767.065 214.226 767.23 214.593 767.362C214.967 767.494 215.356 767.56 215.759 767.56C216.338 767.56 216.764 767.465 217.035 767.274C217.314 767.083 217.453 766.819 217.453 766.482C217.453 766.24 217.376 766.049 217.222 765.91C217.075 765.771 216.892 765.668 216.672 765.602C216.452 765.536 216.148 765.466 215.759 765.393C215.304 765.312 214.938 765.224 214.659 765.129C214.38 765.034 214.142 764.88 213.944 764.667C213.746 764.454 213.647 764.161 213.647 763.787C213.647 763.332 213.834 762.958 214.208 762.665C214.589 762.364 215.128 762.214 215.825 762.214C216.192 762.214 216.555 762.265 216.914 762.368C217.273 762.471 217.567 762.606 217.794 762.775L217.541 763.215C217.306 763.046 217.039 762.918 216.738 762.83C216.437 762.742 216.129 762.698 215.814 762.698C215.279 762.698 214.875 762.797 214.604 762.995C214.333 763.193 214.197 763.453 214.197 763.776C214.197 764.033 214.274 764.234 214.428 764.381C214.582 764.52 214.769 764.627 214.989 764.7C215.216 764.766 215.532 764.839 215.935 764.92C216.382 765.001 216.742 765.089 217.013 765.184C217.292 765.272 217.526 765.419 217.717 765.624C217.908 765.829 218.003 766.112 218.003 766.471C218.003 766.948 217.805 767.329 217.409 767.615C217.013 767.901 216.456 768.044 215.737 768.044ZM228.737 762.258L226.559 768H226.042L224.106 763.017L222.159 768H221.653L219.475 762.258H220.003L221.917 767.384L223.875 762.258H224.348L226.295 767.373L228.231 762.258H228.737ZM233.199 768.044C232.656 768.044 232.165 767.919 231.725 767.67C231.292 767.421 230.951 767.076 230.702 766.636C230.453 766.189 230.328 765.686 230.328 765.129C230.328 764.572 230.453 764.073 230.702 763.633C230.951 763.186 231.292 762.837 231.725 762.588C232.165 762.339 232.656 762.214 233.199 762.214C233.742 762.214 234.229 762.339 234.662 762.588C235.102 762.837 235.447 763.186 235.696 763.633C235.945 764.073 236.07 764.572 236.07 765.129C236.07 765.686 235.945 766.189 235.696 766.636C235.447 767.076 235.102 767.421 234.662 767.67C234.229 767.919 233.742 768.044 233.199 768.044ZM233.199 767.549C233.639 767.549 234.031 767.446 234.376 767.241C234.728 767.036 235.003 766.75 235.201 766.383C235.406 766.016 235.509 765.598 235.509 765.129C235.509 764.66 235.406 764.242 235.201 763.875C235.003 763.508 234.728 763.222 234.376 763.017C234.031 762.812 233.639 762.709 233.199 762.709C232.759 762.709 232.363 762.812 232.011 763.017C231.666 763.222 231.391 763.508 231.186 763.875C230.988 764.242 230.889 764.66 230.889 765.129C230.889 765.598 230.988 766.016 231.186 766.383C231.391 766.75 231.666 767.036 232.011 767.241C232.363 767.446 232.759 767.549 233.199 767.549ZM239.404 763.512C239.58 763.094 239.855 762.775 240.229 762.555C240.603 762.328 241.058 762.214 241.593 762.214V762.753L241.461 762.742C240.823 762.742 240.324 762.944 239.965 763.347C239.606 763.743 239.426 764.297 239.426 765.008V768H238.876V762.258H239.404V763.512ZM249.259 759.838V768H248.72V766.647C248.493 767.094 248.174 767.439 247.763 767.681C247.352 767.923 246.887 768.044 246.366 768.044C245.831 768.044 245.347 767.919 244.914 767.67C244.481 767.421 244.14 767.076 243.891 766.636C243.649 766.196 243.528 765.694 243.528 765.129C243.528 764.564 243.649 764.062 243.891 763.622C244.14 763.175 244.481 762.83 244.914 762.588C245.347 762.339 245.831 762.214 246.366 762.214C246.879 762.214 247.338 762.335 247.741 762.577C248.152 762.819 248.474 763.156 248.709 763.589V759.838H249.259ZM246.399 767.549C246.839 767.549 247.231 767.446 247.576 767.241C247.928 767.036 248.203 766.75 248.401 766.383C248.606 766.016 248.709 765.598 248.709 765.129C248.709 764.66 248.606 764.242 248.401 763.875C248.203 763.508 247.928 763.222 247.576 763.017C247.231 762.812 246.839 762.709 246.399 762.709C245.959 762.709 245.563 762.812 245.211 763.017C244.866 763.222 244.591 763.508 244.386 763.875C244.188 764.242 244.089 764.66 244.089 765.129C244.089 765.598 244.188 766.016 244.386 766.383C244.591 766.75 244.866 767.036 245.211 767.241C245.563 767.446 245.959 767.549 246.399 767.549Z" fill="#FFFDFD"/>
<path d="M151.263 180.736C154.548 180.736 157.535 181.525 160.223 183.104C162.953 184.64 165.087 186.773 166.623 189.504C168.159 192.192 168.927 195.2 168.927 198.528C168.927 201.856 168.201 204.885 166.751 207.616C165.343 210.304 163.38 212.416 160.863 213.952C158.388 215.488 155.615 216.256 152.543 216.256C150.068 216.256 147.764 215.744 145.631 214.72C143.497 213.696 141.684 212.267 140.191 210.432V227.712C140.191 228.693 139.892 229.483 139.295 230.08C138.697 230.677 137.908 230.976 136.927 230.976C135.988 230.976 135.199 230.677 134.559 230.08C133.961 229.483 133.663 228.693 133.663 227.712V198.528C133.663 195.2 134.431 192.192 135.967 189.504C137.545 186.773 139.657 184.64 142.303 183.104C144.991 181.525 147.977 180.736 151.263 180.736ZM151.263 210.496C153.396 210.496 155.316 209.984 157.023 208.96C158.772 207.893 160.137 206.464 161.119 204.672C162.143 202.837 162.655 200.789 162.655 198.528C162.655 196.267 162.143 194.219 161.119 192.384C160.137 190.549 158.772 189.12 157.023 188.096C155.316 187.029 153.396 186.496 151.263 186.496C149.129 186.496 147.188 187.029 145.439 188.096C143.732 189.12 142.388 190.549 141.407 192.384C140.425 194.219 139.935 196.267 139.935 198.528C139.935 200.789 140.425 202.837 141.407 204.672C142.388 206.464 143.732 207.893 145.439 208.96C147.188 209.984 149.129 210.496 151.263 210.496ZM180.583 169.216C180.583 168.277 180.881 167.509 181.479 166.912C182.076 166.315 182.844 166.016 183.783 166.016C184.721 166.016 185.489 166.315 186.087 166.912C186.684 167.509 186.983 168.277 186.983 169.216V204.16C186.983 205.739 187.281 207.04 187.879 208.064C188.476 209.088 189.244 209.6 190.183 209.6H191.783C192.636 209.6 193.319 209.899 193.831 210.496C194.385 211.093 194.663 211.861 194.663 212.8C194.663 213.739 194.257 214.507 193.447 215.104C192.636 215.701 191.591 216 190.311 216H190.183C188.348 216 186.684 215.509 185.191 214.528C183.74 213.504 182.609 212.096 181.799 210.304C180.988 208.469 180.583 206.421 180.583 204.16V169.216ZM204.89 184.256C204.89 183.275 205.189 182.485 205.786 181.888C206.426 181.291 207.215 180.992 208.154 180.992C209.135 180.992 209.925 181.291 210.522 181.888C211.119 182.485 211.418 183.275 211.418 184.256V212.736C211.418 213.675 211.119 214.464 210.522 215.104C209.925 215.701 209.135 216 208.154 216C207.215 216 206.426 215.701 205.786 215.104C205.189 214.464 204.89 213.675 204.89 212.736V184.256ZM208.154 166.848C209.306 166.848 210.287 167.275 211.098 168.128C211.951 168.939 212.378 169.92 212.378 171.072C212.378 172.224 211.951 173.227 211.098 174.08C210.287 174.891 209.306 175.296 208.154 175.296C207.002 175.296 205.999 174.891 205.146 174.08C204.335 173.227 203.93 172.224 203.93 171.072C203.93 169.92 204.335 168.939 205.146 168.128C205.999 167.275 207.002 166.848 208.154 166.848ZM242.635 180.736C246.005 180.736 249.013 181.504 251.659 183.04C254.347 184.533 256.437 186.624 257.931 189.312C259.467 192 260.235 195.072 260.235 198.528C260.235 201.941 259.488 204.992 257.995 207.68C256.501 210.368 254.411 212.48 251.723 214.016C249.077 215.509 246.048 216.256 242.635 216.256C239.221 216.256 236.171 215.509 233.483 214.016C230.795 212.48 228.704 210.368 227.211 207.68C225.717 204.992 224.971 201.941 224.971 198.528C224.971 195.072 225.717 192 227.211 189.312C228.704 186.624 230.795 184.533 233.483 183.04C236.171 181.504 239.221 180.736 242.635 180.736ZM242.635 186.496C240.459 186.496 238.496 187.008 236.747 188.032C235.04 189.056 233.696 190.485 232.715 192.32C231.733 194.155 231.243 196.224 231.243 198.528C231.243 200.832 231.733 202.901 232.715 204.736C233.696 206.528 235.04 207.936 236.747 208.96C238.496 209.984 240.459 210.496 242.635 210.496C244.811 210.496 246.752 209.984 248.459 208.96C250.208 207.936 251.552 206.528 252.491 204.736C253.472 202.901 253.963 200.832 253.963 198.528C253.963 196.224 253.472 194.155 252.491 192.32C251.552 190.485 250.208 189.056 248.459 188.032C246.752 187.008 244.811 186.496 242.635 186.496Z" fill="#E4E4E4"/>
<g style="mix-blend-mode:hard-light">
<path d="M214.912 232.005C213.659 230.704 211.636 230.704 210.383 232.005L192.266 250.814L196.795 255.516L214.912 236.674C216.132 235.406 216.132 233.272 214.912 232.005ZM228.531 231.971L196.795 264.921L185.617 253.349C184.364 252.048 182.341 252.048 181.088 253.349C179.835 254.649 179.835 256.75 181.088 258.051L194.515 271.991C195.768 273.292 197.791 273.292 199.044 271.991L233.06 236.707C234.313 235.406 234.313 233.305 233.06 232.005H233.028C231.808 230.671 229.784 230.671 228.531 231.971ZM162.94 258.084L176.366 272.025C177.619 273.325 179.643 273.325 180.895 272.025L183.144 269.69L167.469 253.349C166.216 252.048 164.192 252.048 162.94 253.349C161.687 254.649 161.687 256.784 162.94 258.084Z" fill="#E4E4E4"/>
</g>
<rect y="444" width="376" height="81" fill="#EFEFEF" fill-opacity="0.05"/>
<rect y="563" width="376" height="81" fill="#EFEFEF" fill-opacity="0.06"/>
<path d="M57.3864 494.12C56.1544 494.12 54.9784 493.912 53.8584 493.496C52.7544 493.064 51.8904 492.512 51.2664 491.84L51.8184 490.928C52.4104 491.552 53.2024 492.064 54.1944 492.464C55.2024 492.848 56.2584 493.04 57.3624 493.04C58.9624 493.04 60.1704 492.736 60.9864 492.128C61.8024 491.52 62.2104 490.728 62.2104 489.752C62.2104 489 61.9944 488.4 61.5624 487.952C61.1304 487.504 60.5944 487.16 59.9544 486.92C59.3144 486.68 58.4504 486.432 57.3624 486.176C56.1304 485.872 55.1384 485.576 54.3864 485.288C53.6504 485 53.0184 484.56 52.4904 483.968C51.9784 483.36 51.7224 482.552 51.7224 481.544C51.7224 480.728 51.9384 479.984 52.3704 479.312C52.8024 478.624 53.4584 478.08 54.3384 477.68C55.2344 477.28 56.3464 477.08 57.6744 477.08C58.6024 477.08 59.5144 477.216 60.4104 477.488C61.3064 477.76 62.0824 478.128 62.7384 478.592L62.2824 479.576C61.6104 479.112 60.8664 478.76 60.0504 478.52C59.2504 478.28 58.4584 478.16 57.6744 478.16C56.1224 478.16 54.9464 478.472 54.1464 479.096C53.3464 479.72 52.9464 480.528 52.9464 481.52C52.9464 482.272 53.1624 482.872 53.5944 483.32C54.0264 483.768 54.5624 484.112 55.2024 484.352C55.8424 484.592 56.7144 484.848 57.8184 485.12C59.0504 485.424 60.0344 485.72 60.7704 486.008C61.5064 486.296 62.1304 486.736 62.6424 487.328C63.1704 487.904 63.4344 488.688 63.4344 489.68C63.4344 490.496 63.2104 491.24 62.7624 491.912C62.3304 492.584 61.6584 493.12 60.7464 493.52C59.8344 493.92 58.7144 494.12 57.3864 494.12ZM69.6114 481.472H70.8114V494H69.6114V481.472ZM70.2114 478.424C69.9394 478.424 69.7074 478.336 69.5154 478.16C69.3234 477.968 69.2274 477.736 69.2274 477.464C69.2274 477.192 69.3234 476.96 69.5154 476.768C69.7074 476.576 69.9394 476.48 70.2114 476.48C70.4834 476.48 70.7154 476.576 70.9074 476.768C71.0994 476.944 71.1954 477.168 71.1954 477.44C71.1954 477.712 71.0994 477.944 70.9074 478.136C70.7154 478.328 70.4834 478.424 70.2114 478.424ZM89.5492 481.472V492.656C89.5492 494.736 89.0452 496.272 88.0372 497.264C87.0292 498.256 85.5092 498.752 83.4772 498.752C82.3252 498.752 81.2372 498.576 80.2132 498.224C79.1892 497.872 78.3652 497.384 77.7412 496.76L78.3892 495.848C79.0132 496.424 79.7652 496.872 80.6452 497.192C81.5252 497.512 82.4612 497.672 83.4532 497.672C85.1172 497.672 86.3492 497.272 87.1492 496.472C87.9492 495.688 88.3492 494.464 88.3492 492.8V490.688C87.8372 491.6 87.1252 492.304 86.2132 492.8C85.3012 493.296 84.2772 493.544 83.1412 493.544C81.9732 493.544 80.9092 493.288 79.9492 492.776C79.0052 492.248 78.2612 491.52 77.7172 490.592C77.1732 489.664 76.9012 488.616 76.9012 487.448C76.9012 486.28 77.1732 485.232 77.7172 484.304C78.2612 483.376 79.0052 482.656 79.9492 482.144C80.9092 481.632 81.9732 481.376 83.1412 481.376C84.2932 481.376 85.3332 481.632 86.2612 482.144C87.1892 482.656 87.9012 483.376 88.3972 484.304V481.472H89.5492ZM83.2372 492.464C84.2132 492.464 85.0932 492.256 85.8772 491.84C86.6612 491.408 87.2692 490.816 87.7012 490.064C88.1492 489.296 88.3732 488.424 88.3732 487.448C88.3732 486.472 88.1492 485.608 87.7012 484.856C87.2692 484.104 86.6612 483.52 85.8772 483.104C85.0932 482.672 84.2132 482.456 83.2372 482.456C82.2612 482.456 81.3812 482.672 80.5972 483.104C79.8292 483.52 79.2212 484.104 78.7732 484.856C78.3412 485.608 78.1252 486.472 78.1252 487.448C78.1252 488.424 78.3412 489.296 78.7732 490.064C79.2212 490.816 79.8292 491.408 80.5972 491.84C81.3812 492.256 82.2612 492.464 83.2372 492.464ZM103.149 481.376C104.717 481.376 105.957 481.832 106.869 482.744C107.781 483.656 108.237 484.968 108.237 486.68V494H107.037V486.776C107.037 485.368 106.677 484.296 105.957 483.56C105.253 482.824 104.261 482.456 102.981 482.456C101.509 482.456 100.349 482.896 99.5006 483.776C98.6526 484.656 98.2286 485.84 98.2286 487.328V494H97.0286V481.472H98.1806V484.184C98.6126 483.304 99.2526 482.616 100.101 482.12C100.965 481.624 101.981 481.376 103.149 481.376ZM124.141 481.472H125.341V494H124.141V481.472ZM124.741 478.424C124.469 478.424 124.237 478.336 124.045 478.16C123.853 477.968 123.757 477.736 123.757 477.464C123.757 477.192 123.853 476.96 124.045 476.768C124.237 476.576 124.469 476.48 124.741 476.48C125.013 476.48 125.245 476.576 125.437 476.768C125.629 476.944 125.725 477.168 125.725 477.44C125.725 477.712 125.629 477.944 125.437 478.136C125.245 478.328 125.013 478.424 124.741 478.424ZM138.919 481.376C140.487 481.376 141.727 481.832 142.639 482.744C143.551 483.656 144.007 484.968 144.007 486.68V494H142.807V486.776C142.807 485.368 142.447 484.296 141.727 483.56C141.023 482.824 140.031 482.456 138.751 482.456C137.279 482.456 136.119 482.896 135.271 483.776C134.423 484.656 133.999 485.84 133.999 487.328V494H132.799V481.472H133.951V484.184C134.383 483.304 135.023 482.616 135.871 482.12C136.735 481.624 137.751 481.376 138.919 481.376Z" fill="#FEFDFF"/>
<path d="M63.4752 596.2V613H62.4672L51.0192 598.408V613H49.7952V596.2H50.8272L62.2512 610.792V596.2H63.4752ZM81.9421 607.024H71.1661C71.1981 608 71.4461 608.872 71.9101 609.64C72.3741 610.392 72.9981 610.976 73.7821 611.392C74.5821 611.808 75.4781 612.016 76.4701 612.016C77.2861 612.016 78.0381 611.872 78.7261 611.584C79.4301 611.28 80.0141 610.84 80.4781 610.264L81.1741 611.056C80.6301 611.712 79.9421 612.216 79.1101 612.568C78.2941 612.92 77.4061 613.096 76.4461 613.096C75.1981 613.096 74.0861 612.824 73.1101 612.28C72.1341 611.736 71.3661 610.984 70.8061 610.024C70.2621 609.064 69.9901 607.968 69.9901 606.736C69.9901 605.52 70.2461 604.432 70.7581 603.472C71.2861 602.496 72.0061 601.736 72.9181 601.192C73.8301 600.648 74.8541 600.376 75.9901 600.376C77.1261 600.376 78.1421 600.648 79.0381 601.192C79.9501 601.72 80.6621 602.464 81.1741 603.424C81.7021 604.384 81.9661 605.472 81.9661 606.688L81.9421 607.024ZM75.9901 601.432C75.1101 601.432 74.3181 601.632 73.6141 602.032C72.9101 602.416 72.3421 602.968 71.9101 603.688C71.4941 604.392 71.2541 605.192 71.1901 606.088H80.7901C80.7421 605.192 80.5021 604.392 80.0701 603.688C79.6381 602.984 79.0701 602.432 78.3661 602.032C77.6621 601.632 76.8701 601.432 75.9901 601.432ZM105.748 600.472L100.996 613H99.868L95.644 602.128L91.396 613H90.292L85.54 600.472H86.692L90.868 611.656L95.14 600.472H96.172L100.42 611.632L104.644 600.472H105.748ZM135.775 613L135.751 598.624L128.719 610.768H128.119L121.087 598.672V613H119.887V596.2H120.919L128.431 609.184L135.943 596.2H136.951L136.975 613H135.775ZM155.433 607.024H144.657C144.689 608 144.937 608.872 145.401 609.64C145.865 610.392 146.489 610.976 147.273 611.392C148.073 611.808 148.969 612.016 149.961 612.016C150.777 612.016 151.529 611.872 152.217 611.584C152.921 611.28 153.505 610.84 153.969 610.264L154.665 611.056C154.121 611.712 153.433 612.216 152.601 612.568C151.785 612.92 150.897 613.096 149.937 613.096C148.689 613.096 147.577 612.824 146.601 612.28C145.625 611.736 144.857 610.984 144.297 610.024C143.753 609.064 143.481 607.968 143.481 606.736C143.481 605.52 143.737 604.432 144.249 603.472C144.777 602.496 145.497 601.736 146.409 601.192C147.321 600.648 148.345 600.376 149.481 600.376C150.617 600.376 151.633 600.648 152.529 601.192C153.441 601.72 154.153 602.464 154.665 603.424C155.193 604.384 155.457 605.472 155.457 606.688L155.433 607.024ZM149.481 601.432C148.601 601.432 147.809 601.632 147.105 602.032C146.401 602.416 145.833 602.968 145.401 603.688C144.985 604.392 144.745 605.192 144.681 606.088H154.281C154.233 605.192 153.993 604.392 153.561 603.688C153.129 602.984 152.561 602.432 151.857 602.032C151.153 601.632 150.361 601.432 149.481 601.432ZM177.169 600.376C178.721 600.376 179.937 600.832 180.817 601.744C181.713 602.656 182.161 603.968 182.161 605.68V613H180.961V605.776C180.961 604.368 180.617 603.296 179.929 602.56C179.241 601.824 178.281 601.456 177.049 601.456C175.641 601.456 174.521 601.896 173.689 602.776C172.873 603.656 172.465 604.84 172.465 606.328V613H171.265V605.776C171.265 604.368 170.921 603.296 170.233 602.56C169.545 601.824 168.585 601.456 167.353 601.456C165.945 601.456 164.825 601.896 163.993 602.776C163.177 603.656 162.769 604.84 162.769 606.328V613H161.569V600.472H162.721V603.16C163.137 602.28 163.753 601.6 164.569 601.12C165.401 600.624 166.385 600.376 167.521 600.376C168.657 600.376 169.617 600.632 170.401 601.144C171.201 601.656 171.769 602.408 172.105 603.4C172.521 602.472 173.169 601.736 174.049 601.192C174.945 600.648 175.985 600.376 177.169 600.376ZM195.804 600.376C196.972 600.376 198.028 600.648 198.972 601.192C199.916 601.72 200.652 602.472 201.18 603.448C201.724 604.408 201.996 605.504 201.996 606.736C201.996 607.968 201.724 609.064 201.18 610.024C200.652 610.984 199.916 611.736 198.972 612.28C198.028 612.824 196.972 613.096 195.804 613.096C194.684 613.096 193.668 612.832 192.756 612.304C191.86 611.76 191.164 611.008 190.668 610.048V613H189.516V595.192H190.716V603.328C191.212 602.4 191.908 601.68 192.804 601.168C193.7 600.64 194.7 600.376 195.804 600.376ZM195.732 612.016C196.692 612.016 197.556 611.792 198.324 611.344C199.092 610.896 199.692 610.272 200.124 609.472C200.572 608.672 200.796 607.76 200.796 606.736C200.796 605.712 200.572 604.8 200.124 604C199.692 603.2 199.092 602.576 198.324 602.128C197.556 601.68 196.692 601.456 195.732 601.456C194.772 601.456 193.908 601.68 193.14 602.128C192.388 602.576 191.788 603.2 191.34 604C190.908 604.8 190.692 605.712 190.692 606.736C190.692 607.76 190.908 608.672 191.34 609.472C191.788 610.272 192.388 610.896 193.14 611.344C193.908 611.792 194.772 612.016 195.732 612.016ZM218.695 607.024H207.919C207.951 608 208.199 608.872 208.663 609.64C209.127 610.392 209.751 610.976 210.535 611.392C211.335 611.808 212.231 612.016 213.223 612.016C214.039 612.016 214.791 611.872 215.479 611.584C216.183 611.28 216.767 610.84 217.231 610.264L217.927 611.056C217.383 611.712 216.695 612.216 215.863 612.568C215.047 612.92 214.159 613.096 213.199 613.096C211.951 613.096 210.839 612.824 209.863 612.28C208.887 611.736 208.119 610.984 207.559 610.024C207.015 609.064 206.743 607.968 206.743 606.736C206.743 605.52 206.999 604.432 207.511 603.472C208.039 602.496 208.759 601.736 209.671 601.192C210.583 600.648 211.607 600.376 212.743 600.376C213.879 600.376 214.895 600.648 215.791 601.192C216.703 601.72 217.415 602.464 217.927 603.424C218.455 604.384 218.719 605.472 218.719 606.688L218.695 607.024ZM212.743 601.432C211.863 601.432 211.071 601.632 210.367 602.032C209.663 602.416 209.095 602.968 208.663 603.688C208.247 604.392 208.007 605.192 207.943 606.088H217.543C217.495 605.192 217.255 604.392 216.823 603.688C216.391 602.984 215.823 602.432 215.119 602.032C214.415 601.632 213.623 601.432 212.743 601.432ZM225.983 603.208C226.367 602.296 226.967 601.6 227.783 601.12C228.599 600.624 229.591 600.376 230.759 600.376V601.552L230.471 601.528C229.079 601.528 227.991 601.968 227.207 602.848C226.423 603.712 226.031 604.92 226.031 606.472V613H224.831V600.472H225.983V603.208Z" fill="#FDFDFD"/>
<line y1="524.5" x2="396.383" y2="524.5" stroke="white"/>
<line y1="562.5" x2="396.383" y2="562.5" stroke="white"/>
<line y1="443.5" x2="396.383" y2="443.5" stroke="white"/>
<path d="M0 644H396.383" stroke="#FCFCFC"/>
<path d="M324.128 495.34L333.794 485.286L324.128 475.231L327.104 472.143L339.766 485.286L327.104 498.429L324.128 495.34Z" fill="#E4E4E4" fill-opacity="0.8"/>
<path d="M323.946 614.097L332.981 603.833L323.946 593.57L326.727 590.417L338.564 603.833L326.727 617.25L323.946 614.097Z" fill="#E4E4E4" fill-opacity="0.83"/>
</g>
<defs>
<linearGradient id="paint0_linear" x1="54.1666" y1="-29.1812" x2="402.005" y2="826.353" gradientUnits="userSpaceOnUse">
<stop offset="0.00386895" stop-color="#F96E8D"/>
<stop offset="1" stop-color="#562C99" stop-opacity="0.75"/>
</linearGradient>
<linearGradient id="paint1_linear" x1="183.5" y1="0" x2="183.5" y2="812" gradientUnits="userSpaceOnUse">
<stop stop-color="white" stop-opacity="0.52"/>
<stop offset="1" stop-color="white" stop-opacity="0"/>
</linearGradient>
<clipPath id="clip0">
<rect width="375" height="812" fill="white"/>
</clipPath>
</defs>
</svg>
