<svg width="97" height="68" viewBox="0 0 97 68" fill="none" xmlns="http://www.w3.org/2000/svg">
<g opacity="0.9">
<path d="M85.971 24.2964C85.9299 26.1884 85.4367 27.9681 84.601 29.2232C79.9702 36.1356 63.8172 56.7416 47.7191 35.9857C34.8816 19.4259 22.2086 26.5444 14.8925 33.5692C12.125 36.2292 8.69985 32.7824 8.80945 27.4248L8.82315 26.6942C8.86425 24.6524 9.43968 22.7416 10.3987 21.4865C15.3309 14.9862 31.5524 -2.82864 48.0616 18.4518C60.2551 34.1686 72.6678 25.9449 79.888 18.1333C82.6555 15.1361 86.0807 18.789 85.971 24.2964Z" fill="#854199"/>
<path opacity="0.84" d="M86.2862 33.5692C86.2451 35.3675 85.7519 37.0722 84.9161 38.2711C80.2853 44.865 64.1461 64.5345 48.0342 44.7152C35.1831 28.9047 22.5237 35.686 15.2076 42.3923C12.4401 44.94 9.01497 41.643 9.12457 36.5102L9.13827 35.8171C9.17938 33.8689 9.7548 32.0518 10.7138 30.8342C15.646 24.6336 31.8675 7.62425 48.3767 27.9681C60.5839 42.9918 72.9829 35.1427 80.2031 27.6683C82.9706 24.8022 86.3958 28.2865 86.2862 33.5692Z" fill="#913A95"/>
<path opacity="0.2" d="M86.9301 41.1934C86.889 42.9543 86.3958 44.6028 85.56 45.7642C80.9292 52.1708 64.79 71.2408 48.6918 52.0022C35.8407 36.6413 23.1676 43.2165 15.8652 49.7355C13.0977 52.2083 9.67259 49.005 9.7822 44.022L9.7959 43.3477C9.837 41.4557 10.4124 39.676 11.3715 38.5146C16.3037 32.5014 32.5114 15.9978 49.0343 35.7422C61.2415 50.335 73.6405 42.7108 80.8607 35.4799C83.6145 32.6887 87.0397 36.0606 86.9301 41.1934Z" fill="#854199"/>
</g>
</svg>
