<svg width="158" height="94" viewBox="0 0 158 94" fill="none" xmlns="http://www.w3.org/2000/svg">
<path d="M93.6202 46.5027C93.6202 63.7475 87.7721 79.3234 78.5823 90.7272C69.1139 79.3234 63.2658 63.4693 63.2658 46.2245C63.2658 28.9798 69.1139 13.4038 78.3038 2C87.7721 13.682 93.6202 29.2579 93.6202 46.5027Z" stroke="#814198" stroke-width="2" stroke-miterlimit="10"/>
<path d="M93.6202 46.5027C93.6202 63.7475 87.7721 79.3234 78.5823 90.7272C69.1139 79.3234 63.2658 63.4693 63.2658 46.2245C63.2658 28.9798 69.1139 13.4038 78.3038 2C87.7721 13.682 93.6202 29.2579 93.6202 46.5027Z" stroke="#814198" stroke-width="2" stroke-miterlimit="10"/>
<path d="M68.557 45.6682C77.1899 60.4098 79.9747 76.8201 77.4684 91.5616C63.5443 86.2769 50.7342 75.7076 42.1013 60.6879C33.4683 45.9464 30.6835 29.536 33.1899 14.7945C47.1139 20.0792 59.924 30.6486 68.557 45.6682Z" stroke="#814198" stroke-width="2" stroke-miterlimit="10"/>
<path d="M68.557 45.6682C77.1899 60.4098 79.9747 76.8201 77.4684 91.5616C63.5443 86.2769 50.7342 75.7076 42.1013 60.6879C33.4683 45.9464 30.6835 29.536 33.1899 14.7945C47.1139 20.0792 59.924 30.6486 68.557 45.6682Z" stroke="#814198" stroke-width="2" stroke-miterlimit="10"/>
<path d="M114.506 60.6879C105.873 75.4294 93.0633 85.9988 79.4177 91.2835C76.9114 76.542 79.6962 60.1316 88.3291 45.112C96.962 30.3705 109.772 19.5229 123.418 14.5164C125.924 29.2579 123.139 45.6683 114.506 60.6879Z" stroke="#814198" stroke-width="2" stroke-miterlimit="10"/>
<path d="M114.506 60.6879C105.873 75.4294 93.0633 85.9988 79.4177 91.2835C76.9114 76.542 79.6962 60.1316 88.3291 45.112C96.962 30.3705 109.772 19.5229 123.418 14.5164C125.924 29.2579 123.139 45.6683 114.506 60.6879Z" stroke="#814198" stroke-width="2" stroke-miterlimit="10"/>
<path d="M124.81 82.6611C110.051 91.2835 93.6203 94.0649 79.1393 91.8398C84.4304 77.9327 95.0127 65.1382 110.051 56.5158C124.81 47.8934 141.241 45.112 156 47.6153C150.43 61.2442 139.848 74.0387 124.81 82.6611Z" stroke="#814198" stroke-width="2" stroke-miterlimit="10"/>
<path d="M124.81 82.6611C110.051 91.2835 93.6203 94.0649 79.1393 91.8398C84.4304 77.9327 95.0127 65.1382 110.051 56.5158C124.81 47.8934 141.241 45.112 156 47.6153C150.43 61.2442 139.848 74.0387 124.81 82.6611Z" stroke="#814198" stroke-width="2" stroke-miterlimit="10"/>
<path d="M48.2278 57.0721C62.9873 65.6945 73.5696 78.489 78.8608 92.1179C64.1013 94.6212 47.6709 91.8398 32.6329 83.2174C17.8734 74.595 7.01266 61.8005 2 48.1715C16.7595 45.6683 33.1899 48.4497 48.2278 57.0721Z" stroke="#814198" stroke-width="2" stroke-miterlimit="10"/>
<path d="M48.2278 57.0721C62.9873 65.6945 73.5696 78.489 78.8608 92.1179C64.1013 94.6212 47.6709 91.8398 32.6329 83.2174C17.8734 74.595 7.01266 61.8005 2 48.1715C16.7595 45.6683 33.1899 48.4497 48.2278 57.0721Z" stroke="#814198" stroke-width="2" stroke-miterlimit="10"/>
</svg>
