<svg width="121" height="94" viewBox="0 0 121 94" fill="none" xmlns="http://www.w3.org/2000/svg">
<path d="M22.9822 76.0122C23.1903 73.6017 21.4075 71.4787 19.0002 71.2703C16.5929 71.0618 14.4727 72.847 14.2646 75.2575C14.0565 77.668 15.8392 79.791 18.2465 79.9994C20.6538 80.2078 22.774 78.4227 22.9822 76.0122Z" stroke="#804098" stroke-width="2" stroke-miterlimit="10"/>
<path d="M18.4999 86.6917C24.7821 86.6917 29.8749 81.5921 29.8749 75.3016C29.8749 69.011 24.7821 63.9115 18.4999 63.9115C12.2177 63.9115 7.12497 69.011 7.12497 75.3016C7.12497 81.5921 12.2177 86.6917 18.4999 86.6917Z" stroke="#804098" stroke-width="2" stroke-miterlimit="10"/>
<path d="M35.2998 75.6521C35.2998 84.4137 28.6499 91.7734 20.2499 92.8248C19.5499 93 18.8499 93 18.1499 93C17.4499 93 16.7499 93 16.0499 92.8248C15.3499 92.8248 14.8249 92.6495 14.1249 92.4743C6.59997 90.722 1 83.888 1 75.6521C1 75.1264 1 74.6007 1 74.075C1.7 66.54 6.94997 60.5821 14.1249 58.8298C15.3499 58.4793 16.7499 58.3041 17.9749 58.3041C27.0749 58.3041 34.5999 65.4886 34.9499 74.6007C35.2998 75.1264 35.2998 75.3016 35.2998 75.6521Z" stroke="#804098" stroke-width="2" stroke-miterlimit="10"/>
<path d="M1.34999 18.0008V76.353" stroke="#804098" stroke-width="2" stroke-miterlimit="10"/>
<path d="M35.2998 75.4768V74.7759V27.6385V16.2485" stroke="#804098" stroke-width="2" stroke-miterlimit="10"/>
<path d="M1.35 19.2274C0.825001 9.76488 9.39996 1.17853 18.3249 1.00329C26.7249 0.828062 35.2998 7.6621 35.2998 17.2999" stroke="#804098" stroke-width="2" stroke-miterlimit="10"/>
<path d="M9.22496 21.5054V49.893" stroke="#804098" stroke-width="2" stroke-miterlimit="10"/>
<path d="M14.6499 36.7506V48.1407" stroke="#804098" stroke-width="2" stroke-miterlimit="10"/>
<path d="M34.5998 25.8862L114.224 26.4119C114.224 26.4119 119.999 26.9376 119.999 31.6689C119.999 36.5754 119.999 86.6917 119.999 86.6917C119.999 86.6917 120.174 92.2991 114.224 92.1238L22.8749 92.2991" stroke="#804098" stroke-width="2" stroke-miterlimit="10"/>
<path d="M56.2997 86.5164H94.7996" stroke="#804098" stroke-width="2" stroke-miterlimit="10"/>
<path d="M99.6996 86.6917H107.4" stroke="#804098" stroke-width="2" stroke-miterlimit="10"/>
</svg>
